<svg width="57" height="289" viewBox="0 0 57 289" fill="none" xmlns="http://www.w3.org/2000/svg">
<path d="M22 29.925C19.9162 29.925 17.9177 29.0953 16.4442 27.6185C14.9707 26.1416 14.1429 24.1386 14.1429 22.05C14.1429 19.9614 14.9707 17.9584 16.4442 16.4815C17.9177 15.0047 19.9162 14.175 22 14.175C24.0838 14.175 26.0823 15.0047 27.5558 16.4815C29.0293 17.9584 29.8571 19.9614 29.8571 22.05C29.8571 23.0842 29.6539 24.1082 29.2591 25.0636C28.8642 26.0191 28.2854 26.8872 27.5558 27.6185C26.8262 28.3497 25.9601 28.9298 25.0068 29.3256C24.0535 29.7213 23.0318 29.925 22 29.925ZM22 0C16.1652 0 10.5695 2.32312 6.44365 6.4583C2.31785 10.5935 0 16.202 0 22.05C0 38.5875 22 63 22 63C22 63 44 38.5875 44 22.05C44 16.202 41.6821 10.5935 37.5563 6.4583C33.4305 2.32312 27.8348 0 22 0Z" fill="#101F2B"/>
<path d="M51.4151 158.188L43.3556 157.284C42.4079 157.175 41.4473 157.278 40.546 157.586C39.6447 157.893 38.8261 158.398 38.1518 159.061L32.3133 164.797C23.3056 160.296 15.9841 153.103 11.4029 144.253L17.2731 138.486C18.6375 137.146 19.3038 135.275 19.0817 133.374L18.1615 125.518C17.9816 123.997 17.2388 122.594 16.0744 121.577C14.91 120.559 13.4055 119.998 11.8471 120H6.35776C2.77221 120 -0.210458 122.93 0.0116561 126.453C1.69337 153.076 23.3653 174.336 50.4315 175.989C54.017 176.207 56.9997 173.276 56.9997 169.754V164.361C57.0314 161.212 54.6199 158.562 51.4151 158.188Z" fill="#101F2B"/>
<path d="M5.4 289C3.915 289 2.6433 288.314 1.5849 286.942C0.526504 285.57 -0.00179542 283.923 4.58404e-06 282V240C4.58404e-06 238.075 0.529205 236.427 1.5876 235.055C2.646 233.683 3.9168 232.998 5.4 233H48.6C50.085 233 51.3567 233.686 52.4151 235.058C53.4735 236.43 54.0018 238.077 54 240V282C54 283.925 53.4708 285.573 52.4124 286.945C51.354 288.317 50.0832 289.002 48.6 289H5.4ZM27 264.5L48.6 247V240L27 257.5L5.4 240V247L27 264.5Z" fill="#101F2B"/>
</svg>
