<svg width="61" height="63" viewBox="0 0 61 63" fill="none" xmlns="http://www.w3.org/2000/svg">
<path d="M17.337 41.379C17.4235 41.6916 17.5707 41.984 17.7702 42.2397C17.9697 42.4954 18.2176 42.7093 18.4997 42.8692C18.7819 43.0291 19.0928 43.1318 19.4146 43.1715C19.7365 43.2113 20.063 43.1872 20.3756 43.1007C20.6882 43.0143 20.9806 42.8671 21.2363 42.6676C21.492 42.4681 21.7059 42.2202 21.8658 41.938C22.0257 41.6559 22.1284 41.345 22.1681 41.0231C22.2079 40.7013 22.1838 40.3747 22.0974 40.0621L17.337 41.379ZM3.16131 6.68045C2.84752 6.5888 2.51864 6.56037 2.19377 6.59682C1.8689 6.63327 1.5545 6.73387 1.26881 6.89278C0.983129 7.0517 0.731847 7.26576 0.529547 7.52256C0.327246 7.77936 0.177955 8.07377 0.0903363 8.38872C0.00271731 8.70367 -0.0214855 9.03288 0.0191324 9.35726C0.0597503 9.68164 0.16438 9.99472 0.326951 10.2783C0.489522 10.562 0.706797 10.8105 0.96617 11.0095C1.22554 11.2084 1.52185 11.3539 1.8379 11.4375L3.16131 6.68045ZM59.0872 42.8933C59.4087 42.819 59.712 42.681 59.9793 42.4874C60.2465 42.2938 60.4722 42.0487 60.6431 41.7664C60.814 41.4841 60.9266 41.1704 60.9742 40.8439C61.0218 40.5174 61.0034 40.1846 60.9203 39.8653C60.8371 39.546 60.6907 39.2466 60.4899 38.9848C60.289 38.723 60.0377 38.5041 59.7508 38.3411C59.4639 38.178 59.1472 38.0742 58.8195 38.0356C58.4918 37.997 58.1597 38.0246 57.8428 38.1165L59.0872 42.8933ZM26.196 48.931C27.2165 52.6181 24.9779 56.5127 21.0143 57.5431L22.2554 62.3199C28.7638 60.6311 32.7407 54.0831 30.9563 47.6142L26.196 48.931ZM21.0143 57.5431C17.0243 58.5801 13.0211 56.2625 11.994 52.5424L7.23362 53.8593C9.01134 60.2953 15.7733 64.0055 22.2554 62.3199L21.0143 57.5431ZM11.994 52.5424C10.9734 48.8553 13.212 44.9608 17.1757 43.9303L15.9346 39.1568C9.42614 40.8457 5.44602 47.3903 7.23362 53.8593L11.994 52.5424ZM17.1757 43.9303C21.1657 42.8933 25.1689 45.211 26.196 48.931L30.9563 47.6142C29.1786 41.1782 22.4167 37.468 15.9346 39.1535L17.1757 43.9303ZM22.0974 40.0621L15.0128 14.4168L10.2525 15.7337L17.337 41.379L22.0974 40.0621ZM8.77102 8.23431L3.16131 6.68045L1.8379 11.4375L7.45089 12.9947L8.77102 8.23431ZM15.0128 14.4168C14.5951 12.9349 13.8006 11.5865 12.7067 10.503C11.6128 9.41946 10.2569 8.63785 8.77102 8.23431L7.45748 12.9947C8.85661 13.3831 9.89691 14.4465 10.2525 15.7337L15.0128 14.4168ZM29.2017 50.6626L59.0872 42.8933L57.8461 38.1165L27.9573 45.8858L29.2017 50.6626Z" fill="#E7DED7"/>
<path d="M55.7195 11.6548C54.1228 5.87394 53.3228 2.98349 50.9789 1.66995C48.6283 0.353122 45.649 1.13005 39.6903 2.68062L33.3695 4.32008C27.4109 5.86736 24.4315 6.64429 23.0785 8.92241C21.7221 11.1972 22.5188 14.0877 24.1155 19.8653L25.8109 25.9984C27.4076 31.776 28.2043 34.6665 30.5515 35.98C32.8988 37.2968 35.8781 36.5199 41.8368 34.9726L48.1576 33.3266C54.1162 31.7793 57.0956 31.0057 58.4519 28.7309C59.1959 27.4799 59.2914 26.0445 58.9589 24.0462" stroke="#E7DED7" stroke-width="1.5" stroke-linecap="round"/>
<path d="M31.4373 11.1616C31.9475 10.7852 32.6386 10.77 33.1632 11.1168L49.2372 21.7677L45.2915 8.50861C45.0553 7.71468 45.508 6.88174 46.3046 6.64468C47.1012 6.40763 47.9357 6.85753 48.172 7.65146L53.2975 24.8757C53.4777 25.4813 53.2599 26.132 52.7497 26.5085C52.2395 26.8849 51.5483 26.9001 51.0238 26.5533L34.9498 15.9024L38.8954 29.1615C39.1317 29.9554 38.679 30.7884 37.8823 31.0254C37.0857 31.2625 36.2513 30.8126 36.015 30.0186L30.8894 12.7944C30.7092 12.1888 30.9271 11.5381 31.4373 11.1616Z" fill="#E7DED7"/>
</svg>
