<svg width="55" height="338" viewBox="0 0 55 338" fill="none" xmlns="http://www.w3.org/2000/svg">
<g filter="url(#filter0_d_3_5599)">
<rect x="4" width="47" height="47" rx="5" fill="white"/>
</g>
<g filter="url(#filter1_d_3_5599)">
<rect x="4" y="283" width="47" height="47" rx="5" fill="white"/>
</g>
<line x1="28.5" y1="46" x2="28.5" y2="283" stroke="#928B8B" stroke-opacity="0.6"/>
<path d="M18.8001 295.642L20.7371 295.107C21.3763 294.931 22.0638 294.973 22.6712 295.227C23.2786 295.481 23.7644 295.928 24.0381 296.486L25.3961 299.252C25.6318 299.732 25.6975 300.267 25.5839 300.783C25.4704 301.299 25.1833 301.769 24.7631 302.128L22.6961 303.892C22.4191 304.132 22.6291 305.071 23.6411 306.678C24.6541 308.285 25.4371 308.92 25.7981 308.821L28.5061 308.063C29.055 307.909 29.6427 307.917 30.1867 308.084C30.7308 308.252 31.2041 308.571 31.5401 308.997L33.4701 311.447C33.8599 311.942 34.0404 312.549 33.978 313.157C33.9157 313.764 33.6147 314.33 33.1311 314.75L31.6391 316.044C31.1574 316.461 30.5634 316.755 29.9176 316.894C29.2718 317.032 28.5974 317.012 27.9631 316.834C24.8371 315.958 21.9421 313.357 19.2391 309.068C16.5301 304.773 15.5071 301.15 16.2201 298.19C16.3639 297.593 16.6788 297.043 17.1323 296.595C17.5858 296.147 18.1615 295.818 18.8001 295.642Z" fill="black"/>
<path d="M17.8573 13.7663V33.1951H29.4287V13.7663H17.8573ZM16.893 12H30.393C30.6488 12 30.894 12.093 31.0749 12.2587C31.2557 12.4243 31.3573 12.6489 31.3573 12.8831V34.0782C31.3573 34.3125 31.2557 34.5371 31.0749 34.7027C30.894 34.8683 30.6488 34.9614 30.393 34.9614H16.893C16.6373 34.9614 16.392 34.8683 16.2111 34.7027C16.0303 34.5371 15.9287 34.3125 15.9287 34.0782V12.8831C15.9287 12.6489 16.0303 12.4243 16.2111 12.2587C16.392 12.093 16.6373 12 16.893 12Z" fill="#4ECB71"/>
<path d="M19.7857 17.2988H27.5V19.0651H19.7857V17.2988ZM19.7857 22.5976H27.5V24.3639H19.7857V22.5976ZM19.7857 27.8964H27.5V29.6626H19.7857V27.8964ZM31.3571 24.3639H35.2143V26.1301H31.3571V24.3639ZM31.3571 27.8964H35.2143V29.6626H31.3571V27.8964ZM14 33.1952H41V34.9614H14V33.1952Z" fill="#4ECB71"/>
<path d="M31.3573 20.8313V33.195H37.143V20.8313H31.3573ZM30.393 19.065H38.1073C38.3631 19.065 38.6083 19.158 38.7892 19.3237C38.97 19.4893 39.0716 19.7139 39.0716 19.9481V34.0782C39.0716 34.3124 38.97 34.537 38.7892 34.7026C38.6083 34.8683 38.3631 34.9613 38.1073 34.9613H30.393C30.1373 34.9613 29.892 34.8683 29.7111 34.7026C29.5303 34.537 29.4287 34.3124 29.4287 34.0782V19.9481C29.4287 19.7139 29.5303 19.4893 29.7111 19.3237C29.892 19.158 30.1373 19.065 30.393 19.065Z" fill="#4ECB71"/>
<defs>
<filter id="filter0_d_3_5599" x="0" y="0" width="55" height="55" filterUnits="userSpaceOnUse" color-interpolation-filters="sRGB">
<feFlood flood-opacity="0" result="BackgroundImageFix"/>
<feColorMatrix in="SourceAlpha" type="matrix" values="0 0 0 0 0 0 0 0 0 0 0 0 0 0 0 0 0 0 127 0" result="hardAlpha"/>
<feOffset dy="4"/>
<feGaussianBlur stdDeviation="2"/>
<feComposite in2="hardAlpha" operator="out"/>
<feColorMatrix type="matrix" values="0 0 0 0 0 0 0 0 0 0 0 0 0 0 0 0 0 0 0.25 0"/>
<feBlend mode="normal" in2="BackgroundImageFix" result="effect1_dropShadow_3_5599"/>
<feBlend mode="normal" in="SourceGraphic" in2="effect1_dropShadow_3_5599" result="shape"/>
</filter>
<filter id="filter1_d_3_5599" x="0" y="283" width="55" height="55" filterUnits="userSpaceOnUse" color-interpolation-filters="sRGB">
<feFlood flood-opacity="0" result="BackgroundImageFix"/>
<feColorMatrix in="SourceAlpha" type="matrix" values="0 0 0 0 0 0 0 0 0 0 0 0 0 0 0 0 0 0 127 0" result="hardAlpha"/>
<feOffset dy="4"/>
<feGaussianBlur stdDeviation="2"/>
<feComposite in2="hardAlpha" operator="out"/>
<feColorMatrix type="matrix" values="0 0 0 0 0 0 0 0 0 0 0 0 0 0 0 0 0 0 0.25 0"/>
<feBlend mode="normal" in2="BackgroundImageFix" result="effect1_dropShadow_3_5599"/>
<feBlend mode="normal" in="SourceGraphic" in2="effect1_dropShadow_3_5599" result="shape"/>
</filter>
</defs>
</svg>
