<svg width="80" height="78" viewBox="0 0 80 78" fill="none" xmlns="http://www.w3.org/2000/svg">
<path d="M0 38.7985C0 17.5379 17.2351 0.302734 38.4957 0.302734H80V37.2942C80 59.3856 62.0914 77.2942 40 77.2942H38.4957C17.2351 77.2942 0 60.0591 0 38.7985Z" fill="#EBFAF4"/>
<path d="M31.625 38.7984C31.625 34.347 35.3746 30.7384 40 30.7384C44.6254 30.7384 48.375 34.347 48.375 38.7984C48.375 43.2499 44.6254 46.8585 40 46.8585C35.3746 46.8585 31.625 43.2499 31.625 38.7984ZM33.375 38.7984C33.375 42.3197 36.3411 45.1743 40 45.1743C43.6589 45.1743 46.625 42.3197 46.625 38.7984C46.625 35.2772 43.6589 32.4226 40 32.4226C36.3411 32.4226 33.375 35.2772 33.375 38.7984ZM40 38.3573L38.0771 40.1558C37.7353 40.4846 37.1813 40.4846 36.8396 40.1558C36.4979 39.8269 36.4979 39.2937 36.8396 38.9649L39.3396 36.5589C39.6813 36.23 40.2353 36.23 40.5771 36.5589L43.0771 38.9649C43.4188 39.2937 43.4188 39.8269 43.0771 40.1558C42.7353 40.4846 42.1813 40.4846 41.8396 40.1558L40 38.3573Z" fill="#000D2F"/>
</svg>
