<svg width="20" height="20" viewBox="0 0 20 20" fill="none" xmlns="http://www.w3.org/2000/svg">
<path d="M14.4503 4.94116C14.2525 4.94116 14.0592 4.9976 13.8948 5.10335C13.7303 5.2091 13.6021 5.35941 13.5264 5.53526C13.4508 5.71112 13.431 5.90462 13.4695 6.09131C13.5081 6.27799 13.6034 6.44947 13.7432 6.58407C13.8831 6.71866 14.0613 6.81032 14.2552 6.84745C14.4492 6.88459 14.6503 6.86553 14.833 6.79269C15.0157 6.71985 15.1719 6.5965 15.2818 6.43823C15.3917 6.27997 15.4503 6.0939 15.4503 5.90355C15.4503 5.64831 15.345 5.40352 15.1574 5.22304C14.9699 5.04255 14.7155 4.94116 14.4503 4.94116ZM18.2837 6.88199C18.2675 6.21657 18.138 5.55822 17.9003 4.93314C17.6884 4.39832 17.3586 3.91403 16.9337 3.51361C16.521 3.10253 16.0166 2.78714 15.4587 2.59132C14.8109 2.35566 14.126 2.22818 13.4337 2.21438C12.5503 2.16626 12.267 2.16626 10.0003 2.16626C7.73366 2.16626 7.45033 2.16626 6.56699 2.21438C5.87462 2.22818 5.18978 2.35566 4.54199 2.59132C3.98506 2.78913 3.4811 3.10424 3.06699 3.51361C2.63985 3.91074 2.31214 4.39616 2.10866 4.93314C1.86379 5.55656 1.73133 6.21565 1.71699 6.88199C1.66699 7.7321 1.66699 8.00478 1.66699 10.1862C1.66699 12.3676 1.66699 12.6403 1.71699 13.4904C1.73133 14.1568 1.86379 14.8158 2.10866 15.4393C2.31214 15.9762 2.63985 16.4617 3.06699 16.8588C3.4811 17.2682 3.98506 17.5833 4.54199 17.7811C5.18978 18.0167 5.87462 18.1442 6.56699 18.158C7.45033 18.2061 7.73366 18.2061 10.0003 18.2061C12.267 18.2061 12.5503 18.2061 13.4337 18.158C14.126 18.1442 14.8109 18.0167 15.4587 17.7811C16.0166 17.5853 16.521 17.2699 16.9337 16.8588C17.3605 16.4599 17.6906 15.9752 17.9003 15.4393C18.138 14.8142 18.2675 14.1558 18.2837 13.4904C18.2837 12.6403 18.3337 12.3676 18.3337 10.1862C18.3337 8.00478 18.3337 7.7321 18.2837 6.88199ZM16.7837 13.3942C16.7776 13.9033 16.6818 14.4077 16.5003 14.8859C16.3673 15.2349 16.1536 15.5503 15.8753 15.8082C15.605 16.0732 15.278 16.2785 14.917 16.4097C14.4201 16.5843 13.896 16.6765 13.367 16.6824C12.5337 16.7225 12.2253 16.7305 10.0337 16.7305C7.84199 16.7305 7.53366 16.7305 6.70033 16.6824C6.15107 16.6923 5.60415 16.6109 5.08366 16.4418C4.73848 16.3039 4.42646 16.0991 4.16699 15.8403C3.8904 15.5826 3.67936 15.267 3.55033 14.918C3.34687 14.4329 3.23403 13.917 3.21699 13.3942C3.21699 12.5922 3.16699 12.2954 3.16699 10.1862C3.16699 8.07696 3.16699 7.78022 3.21699 6.97823C3.22073 6.45778 3.31945 5.94201 3.50866 5.45444C3.65536 5.11592 3.88055 4.81417 4.16699 4.57224C4.42017 4.29649 4.73307 4.07749 5.08366 3.93065C5.59162 3.75424 6.12699 3.66204 6.66699 3.65797C7.50033 3.65797 7.80866 3.60985 10.0003 3.60985C12.192 3.60985 12.5003 3.60985 13.3337 3.65797C13.8626 3.66381 14.3867 3.75601 14.8837 3.93065C15.2624 4.06591 15.6022 4.28581 15.8753 4.57224C16.1484 4.8186 16.3618 5.11979 16.5003 5.45444C16.6855 5.9428 16.7814 6.45836 16.7837 6.97823C16.8253 7.78022 16.8337 8.07696 16.8337 10.1862C16.8337 12.2954 16.8253 12.5922 16.7837 13.3942ZM10.0003 6.07197C9.15517 6.07356 8.32946 6.3162 7.62754 6.76924C6.92561 7.22228 6.37897 7.86539 6.05669 8.6173C5.7344 9.36922 5.65093 10.1962 5.81682 10.9938C5.98271 11.7913 6.39052 12.5236 6.98872 13.0982C7.58692 13.6728 8.34867 14.0639 9.17771 14.222C10.0067 14.3801 10.8659 14.2981 11.6466 13.9865C12.4272 13.6749 13.0944 13.1475 13.5638 12.4711C14.0331 11.7947 14.2837 10.9996 14.2837 10.1862C14.2848 9.64494 14.1747 9.10881 13.9597 8.60864C13.7447 8.10848 13.4291 7.65415 13.0311 7.2718C12.633 6.88944 12.1603 6.58659 11.6402 6.38068C11.12 6.17477 10.5627 6.06986 10.0003 6.07197ZM10.0003 12.8568C9.45148 12.8568 8.91496 12.7002 8.45862 12.4068C8.00227 12.1133 7.64659 11.6962 7.43656 11.2082C7.22653 10.7202 7.17157 10.1832 7.27865 9.66519C7.38572 9.14713 7.65001 8.67127 8.0381 8.29777C8.4262 7.92428 8.92065 7.66992 9.45895 7.56688C9.99725 7.46383 10.5552 7.51672 11.0623 7.71885C11.5693 7.92099 12.0027 8.26329 12.3077 8.70247C12.6126 9.14166 12.7753 9.658 12.7753 10.1862C12.7753 10.5369 12.7035 10.8842 12.5641 11.2082C12.4246 11.5322 12.2202 11.8266 11.9625 12.0746C11.7049 12.3226 11.399 12.5193 11.0623 12.6536C10.7256 12.7878 10.3647 12.8568 10.0003 12.8568Z" fill="white"/>
</svg>
